<svg xmlns="http://www.w3.org/2000/svg" fill="none" viewBox="0 0 112 38"><path fill="#fff" d="m15.702 12.864 12.203 1.04 1.509-7.627L24.01 4.47l-1.965.745-.287 1.863-1.82-.454-.36-3.864-4.072-.711-4.265.711-.34 3.946-1.972.637V5.96l-1.832-.95-5.321 1.613 1.757 7.425 12.17-1.185Zm-1.176-5.626 1.067-1.426 1.09 1.415.316 2.98h-2.813l.34-2.969ZM4.58 15.647l-.539 7.078 11.588 2.98 11.717-3.483-.501-6.616-11.2-.89-11.065.93Zm24.863 8.106-13.76 3.767-13.757-3.305-.796 6.27 14.552 5.652 14.67-5.883-.91-6.5Z"/><path fill="#DD2F2C" d="m45.271 3.408 19.987-2.29-1.886 35.954-16.611-1.032-1.49-32.632Z"/><path fill="#fff" d="M42.854 5.96h3.96l-3.07 25.971h-5.91l-2.97-25.97h3.891l2.12 20.982h.101L42.854 5.96ZM63.508 9.806c0-1.664.467-2.79 1.4-3.375.728-.472 1.985-.708 3.77-.708 2.894 0 4.556.731 4.986 2.194.154.618.224 1.253.207 1.889v18.28c0 2.092-.83 3.374-2.493 3.846v.167c0 .224.83.34 2.493.34v2.39h-1.844c-2.165 0-3.246-.673-3.243-2.022v-.64c-1.82 0-3.108-.226-3.862-.675-.953-.586-1.43-1.721-1.433-3.405l.02-18.281Zm6.41 18.28V9.807c0-.451-.082-.745-.256-.86a1.784 1.784 0 0 0-.973-.187 1.882 1.882 0 0 0-.987.186c-.185.123-.276.41-.276.86v18.282c0 .45.09.745.275.86.307.148.648.212.989.183.335.032.672-.032.972-.183.181-.126.264-.41.264-.86h-.007ZM82.209 5.96h3.925v22.294a7.783 7.783 0 0 1-.17 1.721c-.208.944-.87 1.585-1.983 1.923-.974.21-1.971.3-2.968.268-2.893 0-4.528-.73-4.902-2.19a7.312 7.312 0 0 1-.204-1.722V5.961h3.926v21.757c-.03.357.028.716.17 1.047a1.154 1.154 0 0 0 .991.372c.796 0 1.196-.47 1.196-1.416l.019-21.76ZM99.152 31.931H95.16l-.581-6.475H91.47l-.682 6.475h-3.515L90.29 5.957h5.872l2.99 25.974ZM93.118 9.533l-1.263 12.514h2.391L93.118 9.533ZM100.415 31.931V5.962h6.034a7.39 7.39 0 0 1 1.912.205c1.523.402 2.285 2.01 2.285 4.82v16.255c0 1.689-.273 2.87-.818 3.543-.614.765-1.745 1.148-3.394 1.148h-6.019Zm3.926-22.87v19.767h1.131a1.08 1.08 0 0 0 1.094-.607c.113-.44.159-.895.135-1.349V11.087c0-1.353-.398-2.029-1.195-2.026h-1.165Z"/><path fill="#000100" d="M50.57 22.282h3.891v5.805c0 .45.09.745.272.86.308.149.65.212.992.183.335.032.672-.032.973-.183.17-.126.256-.41.256-.86v-3.104a3.975 3.975 0 0 0-.411-1.885 7.998 7.998 0 0 0-.818-1.248c-.114-.156-.933-1.15-2.46-2.98a18.79 18.79 0 0 1-2.182-3.036c-.343-.651-.513-1.617-.513-2.899V9.687c0-1.64.466-2.741 1.399-3.305.706-.427 1.963-.64 3.77-.64 2.917 0 4.568.73 4.952 2.194a7.26 7.26 0 0 1 .204 1.888v5.242h-3.952v-5.26c0-.451-.087-.745-.257-.86a1.783 1.783 0 0 0-.973-.187 1.905 1.905 0 0 0-.991.186c-.181.122-.272.409-.272.86v3a3.322 3.322 0 0 0 .445 1.687c.247.406.524.792.83 1.155.817.994 1.625 1.987 2.424 2.98a17.7 17.7 0 0 1 2.15 3.033c.426.955.625 1.994.58 3.037v3.542c0 1.642-.466 2.744-1.398 3.305-.704.427-1.961.64-3.771.64-2.917 0-4.567-.73-4.952-2.19a7.31 7.31 0 0 1-.203-1.889l.015-5.823Z"/></svg>