<svg xmlns="http://www.w3.org/2000/svg" fill="none" viewBox="0 0 121 142"><path fill="#fff" d="m60.336 45.052 50.53 4.33 6.246-31.768-22.376-7.527-8.136 3.104-1.186 7.76-7.542-1.893-1.484-16.094L59.524 0l-17.66 2.964L40.458 19.4l-8.166 2.654v-5.758l-7.59-3.957-22.032 6.72 7.277 30.93 50.389-4.936Zm-4.872-23.434 4.42-5.944 4.512 5.898 1.312 12.415h-11.65l1.406-12.369ZM14.288 56.645 12.055 86.13l47.984 12.415 48.516-14.51-2.077-27.562-46.376-3.709-45.814 3.88Zm102.949 33.77-56.979 15.689L3.295 92.339 0 118.457 60.258 142 121 117.495l-3.763-27.08Z"/></svg>