<svg aria-hidden="true" style="position: absolute; width: 0; height: 0; overflow: hidden;" version="1.1" xmlns="http://www.w3.org/2000/svg" xmlns:xlink="http://www.w3.org/1999/xlink">
<defs>
<symbol id="icon-arrow" viewBox="0 0 32 32">
<path d="M13.298 16l9.707-10.080c0.615-0.64 0.615-1.6 0-2.24-0.617-0.64-1.541-0.64-2.158 0l-10.784 11.2c-0.31 0.32-0.463 0.8-0.463 1.12 0 0.48 0.154 0.8 0.462 1.12l10.785 11.2c0.309 0.32 0.617 0.48 1.079 0.48 0.462 0 0.77-0.16 1.077-0.48 0.617-0.64 0.617-1.6 0-2.24l-9.707-10.080z"></path>
</symbol>
<symbol id="icon-artstation" viewBox="0 0 32 32">
<path d="M13.729 5l12.271 22 1.993-4.512c0.2-0.391 0.317-0.854 0.317-1.343 0-0.579-0.164-1.119-0.447-1.578l0.007 0.013-7.775-13.144c-0.537-0.867-1.482-1.435-2.56-1.436h-3.805zM11.512 7.177l-5.883 10.823h11.917l-6.036-10.823zM4 21l2.172 4.341c0.503 0.991 1.515 1.659 2.683 1.659 0 0 0 0 0 0h13.712l-3.347-6h-15.22z"></path>
</symbol>
<symbol id="icon-email" viewBox="0 0 32 32">
<path d="M26.667 5.333h-21.333c-1.473 0-2.667 1.194-2.667 2.667v0 16c0 1.473 1.194 2.667 2.667 2.667v0h21.333c1.473 0 2.667-1.194 2.667-2.667v0-16c0-1.473-1.194-2.667-2.667-2.667v0zM26.667 11.733l-10.667 7.107-10.667-7.107v-3.337l10.667 7.111 10.667-7.111v3.337z"></path>
</symbol>
<symbol id="icon-linkedin" viewBox="0 0 32 32">
<path d="M28.267 2.667h-24.534c-0.59 0-1.066 0.476-1.066 1.066v24.534c0 0.59 0.476 1.066 1.066 1.066h24.534c0.59 0 1.066-0.476 1.066-1.066v-24.534c0-0.59-0.476-1.066-1.066-1.066zM10.577 25.39h-3.957v-12.727h3.957v12.727zM8.6 10.923c-1.266 0-2.293-1.027-2.293-2.293s1.027-2.293 2.293-2.293v0c1.266 0 2.293 1.027 2.293 2.293s-1.027 2.293-2.293 2.293v0zM25.39 25.39h-3.953v-6.19c0-1.477-0.027-3.373-2.057-3.373-2.057 0-2.373 1.606-2.373 3.266v6.297h-3.95v-12.727h3.793v1.74h0.053c0.527-1 1.817-2.056 3.744-2.056 4.006 0 4.743 2.636 4.743 6.063v6.98z"></path>
</symbol>
<symbol id="icon-instagram" viewBox="0 0 32 32">
<path d="M11.799 16.027c0.005-2.338 1.898-4.233 4.235-4.24h0.001c2.338 0.008 4.23 1.902 4.235 4.24v0c-0.004 2.339-1.897 4.234-4.234 4.241h-0.001c-2.338-0.007-4.231-1.902-4.236-4.24v-0z"></path>
<path d="M5.473 2.667h21.053c1.55 0 2.807 1.257 2.807 2.807v21.053c0 1.55-1.257 2.807-2.807 2.807h-21.053c-1.549 0-2.807-1.257-2.807-2.807v-21.053c0-1.55 1.257-2.807 2.807-2.807zM25.055 8.844l-0-0.003c-0.028-0.984-0.835-1.773-1.826-1.773s-1.799 0.791-1.826 1.779l0-0.003c-0.001 0.024-0.001 0.048-0.001 0.072 0 1.009 0.818 1.827 1.827 1.827s1.827-0.818 1.827-1.827c0-0.025-0-0.050-0.001-0.071zM16.036 8.968c-0.002 0-0.004 0-0.007 0-3.892 0-7.047 3.155-7.047 7.047 0 0.005 0 0.009 0 0.014v-0.001c0 0.004 0 0.009 0 0.013 0 3.892 3.155 7.047 7.047 7.047 0.002 0 0.005 0 0.007 0h-0c0.001 0 0.003 0 0.004 0 3.892 0 7.047-3.155 7.047-7.047 0-0.005 0-0.009 0-0.014v0.001c0-0.004 0-0.009 0-0.013 0-3.892-3.155-7.047-7.047-7.047-0.001 0-0.003 0-0.004 0h0z"></path>
</symbol>
<symbol id="icon-facebook" viewBox="0 0 32 32">
<path d="M21.040 29.333v-10.32h3.456l0.517-4.012h-3.973v-2.56c0-1.161 0.323-1.953 1.988-1.953h2.124v-3.589c-0.897-0.1-1.936-0.158-2.989-0.158-0.038 0-0.075 0-0.113 0l0.006-0c-3.061 0-5.159 1.869-5.159 5.303v2.957h-3.463v4.012h3.463v10.32h-12.749c-0.818 0-1.481-0.663-1.481-1.481v0-23.705c0.001-0.818 0.664-1.48 1.481-1.48 0 0 0 0 0 0h23.705c0.818 0.001 1.48 0.664 1.48 1.481 0 0 0 0 0 0v0 23.705c-0.001 0.818-0.664 1.48-1.481 1.48 0 0 0 0 0 0h-6.812z"></path>
</symbol>
<symbol id="icon-telegram" viewBox="0 0 32 32">
<path d="M25.904 5.488c0.228-0.098 0.493-0.155 0.772-0.155 0.467 0 0.897 0.16 1.238 0.429l-0.004-0.003c0.462 0.366 0.756 0.927 0.756 1.557 0 0.113-0.009 0.223-0.027 0.33l0.002-0.012-3.009 18.161c-0.292 1.752-2.223 2.756-3.837 1.884-1.351-0.731-3.357-1.855-5.161-3.028-0.903-0.588-3.667-2.469-3.327-3.808 0.292-1.144 4.936-5.445 7.589-8.003 1.041-1.004 0.567-1.584-0.664-0.66-3.053 2.293-7.957 5.784-9.579 6.765-1.431 0.867-2.176 1.013-3.067 0.867-1.627-0.269-3.136-0.687-4.368-1.195-1.663-0.687-1.583-2.963 0-3.625l22.687-9.505z"></path>
</symbol>
<symbol id="icon-whatsapp" viewBox="0 0 32 32">
<path d="M16.001 2.667c7.364 0 13.333 5.969 13.333 13.333s-5.969 13.333-13.333 13.333c-0.006 0-0.014 0-0.022 0-2.463 0-4.77-0.671-6.747-1.84l0.062 0.034-6.621 1.807 1.803-6.624c-1.136-1.916-1.808-4.223-1.808-6.687 0-0.008 0-0.016 0-0.023v0.001c0-7.364 5.969-13.333 13.333-13.333zM11.457 9.733l-0.267 0.011c-0.183 0.011-0.352 0.059-0.503 0.137l0.007-0.003c-0.15 0.086-0.279 0.187-0.392 0.303l-0.001 0.001c-0.16 0.151-0.251 0.281-0.348 0.408-0.471 0.607-0.755 1.38-0.755 2.219 0 0.006 0 0.013 0 0.019v-0.001c0.003 0.653 0.173 1.289 0.44 1.884 0.545 1.203 1.443 2.476 2.627 3.656 0.285 0.284 0.565 0.569 0.867 0.835 1.416 1.252 3.136 2.196 5.032 2.708l0.088 0.020 0.757 0.116c0.247 0.013 0.493-0.005 0.741-0.017 0.41-0.022 0.789-0.133 1.125-0.315l-0.014 0.007c0.173-0.089 0.345-0.187 0.511-0.293 0 0 0.057-0.037 0.167-0.12 0.18-0.133 0.291-0.228 0.44-0.384 0.111-0.115 0.207-0.249 0.28-0.403 0.104-0.217 0.208-0.632 0.251-0.977 0.032-0.264 0.023-0.408 0.019-0.497-0.005-0.143-0.124-0.291-0.253-0.353l-0.776-0.348s-1.16-0.505-1.869-0.828c-0.069-0.031-0.149-0.051-0.233-0.055l-0.002-0c-0.020-0.002-0.042-0.003-0.065-0.003-0.17 0-0.324 0.066-0.439 0.173l0-0c-0.007-0.003-0.096 0.073-1.060 1.241-0.086 0.115-0.222 0.188-0.374 0.188-0.041 0-0.081-0.005-0.12-0.015l0.003 0.001c-0.101-0.027-0.185-0.057-0.267-0.093l0.012 0.005c-0.165-0.069-0.223-0.096-0.336-0.144-0.805-0.356-1.498-0.805-2.109-1.345l0.009 0.007c-0.168-0.147-0.324-0.307-0.484-0.461-0.515-0.494-0.964-1.048-1.339-1.655l-0.021-0.036-0.079-0.127c-0.053-0.079-0.099-0.169-0.133-0.265l-0.003-0.009c-0.051-0.196 0.081-0.353 0.081-0.353s0.324-0.355 0.475-0.547c0.147-0.187 0.271-0.368 0.351-0.497 0.157-0.253 0.207-0.513 0.124-0.715-0.373-0.912-0.76-1.82-1.157-2.721-0.079-0.179-0.312-0.307-0.524-0.332-0.046-0.006-0.12-0.014-0.195-0.020l-0.021-0.001c-0.067-0.004-0.145-0.006-0.224-0.006-0.11 0-0.22 0.004-0.328 0.012l0.015-0.001 0.268-0.011 0.001 0.001z"></path>
</symbol>
<symbol id="icon-arrow-link" viewBox="0 0 32 32">
<path d="M30.875 14.992l-15.742-13.662c-0.116-0.101-0.27-0.163-0.437-0.164h-3.687c-0.183 0.001-0.331 0.149-0.331 0.332 0 0.1 0.044 0.189 0.114 0.25l0 0 14.592 12.667h-24.384c-0.184 0.001-0.332 0.15-0.332 0.334 0 0 0 0 0 0v0 2.5c0 0.183 0.149 0.334 0.334 0.334h24.379l-14.592 12.667c-0.070 0.061-0.114 0.151-0.114 0.251 0 0.183 0.148 0.332 0.331 0.332h3.812c0 0 0.001 0 0.001 0 0.083 0 0.159-0.032 0.216-0.084l-0 0 15.842-13.742c0.282-0.246 0.459-0.607 0.459-1.008s-0.177-0.762-0.457-1.007l-0.002-0.001z"></path>
</symbol>
<symbol id="icon-stopwatch" viewBox="0 0 32 32">
<path d="M27.87 7.39l-1.59 1.6h-0.010c2.13 2.46 3.29 5.6 3.29 8.86 0 7.49-6.090 13.58-13.58 13.58s-13.58-6.090-13.58-13.58c0-3.26 1.16-6.4 3.27-8.86l-1.59-1.59c-0.23-0.24-0.34-0.55-0.34-0.88 0.010-0.32 0.14-0.63 0.37-0.86s0.53-0.37 0.86-0.37c0.34-0.010 0.63 0.12 0.87 0.34l1.63 1.62c1.983-1.613 4.473-2.677 7.198-2.926l0.052-0.004v-1.22h-1.080c-0.33 0-0.64-0.14-0.88-0.37s-0.37-0.55-0.37-0.88c0-0.33 0.14-0.64 0.37-0.88s0.55-0.37 0.88-0.37h4.67c0.33 0 0.65 0.14 0.88 0.37 0.228 0.224 0.369 0.536 0.369 0.88s-0.141 0.656-0.369 0.88l-0 0c-0.23 0.24-0.55 0.37-0.88 0.37h-1.080v1.22c2.67 0.24 5.17 1.25 7.25 2.93l1.62-1.62c0.24-0.23 0.54-0.35 0.88-0.34 0.32 0.010 0.63 0.14 0.86 0.37s0.37 0.53 0.37 0.86c0 0.32-0.12 0.63-0.34 0.87zM20.22 28.090c1.35-0.56 2.56-1.36 3.6-2.4v-0.020c1.030-1.040 1.84-2.25 2.4-3.6s0.84-2.78 0.84-4.24c0-1.46-0.28-2.89-0.84-4.24-0.56-1.36-1.36-2.57-2.4-3.6-1.005-1-2.201-1.81-3.527-2.372l-0.073-0.028c-1.247-0.531-2.697-0.84-4.22-0.84-0.007 0-0.014 0-0.021 0h0.001c-2.96 0-5.74 1.15-7.84 3.25s-3.25 4.88-3.25 7.84 1.16 5.75 3.25 7.84c2.1 2.1 4.88 3.25 7.84 3.25 1.46 0 2.89-0.28 4.24-0.84zM20.17 12.030c0.31-0.13 0.66-0.13 0.96 0l-0.020 0.010c0.16 0.060 0.29 0.15 0.41 0.27 0.24 0.23 0.37 0.56 0.37 0.88s-0.14 0.65-0.37 0.88l-3.070 3.070c0.15 0.51 0.13 1.060-0.040 1.56-0.36 1.021-1.316 1.74-2.44 1.74v0c-0.090 0-0.19-0.010-0.28-0.020-0.58-0.060-1.13-0.33-1.54-0.74s-0.68-0.96-0.74-1.54c-0.070-0.59 0.070-1.18 0.38-1.67s0.79-0.87 1.34-1.060c0.5-0.17 1.050-0.19 1.56-0.040l3.070-3.070c0.12-0.12 0.26-0.21 0.41-0.27z"></path>
</symbol>
<symbol id="icon-game" viewBox="0 0 32 32">
<path d="M8.347 2.929c-0.145 0.068-1.213 1.103-3.316 3.212-3.288 3.299-3.216 3.216-3.217 3.703-0.001 0.481-0.025 0.454 3.294 3.767 3.34 3.334 3.234 3.242 3.745 3.242s0.408 0.090 3.72-3.216c1.743-1.741 3.144-3.181 3.193-3.283 0.125-0.265 0.151-0.558 0.073-0.847-0.063-0.236-0.286-0.473-3.167-3.362-2.064-2.070-3.171-3.143-3.316-3.213-0.279-0.136-0.724-0.137-1.009-0.003zM22.727 3.552c-1.587 0.287-2.943 1.119-3.897 2.291l-0.009 0.012c-0.864 1.066-1.387 2.438-1.387 3.933 0 0.008 0 0.016 0 0.024v-0.001c0.002 1.761 0.626 3.286 1.846 4.51 1.149 1.153 2.585 1.79 4.227 1.876 2.501 0.13 4.911-1.293 6.016-3.551 1.709-3.494-0.060-7.674-3.749-8.86-0.601-0.2-1.293-0.316-2.012-0.316-0.365 0-0.724 0.030-1.073 0.087l0.038-0.005zM10.947 7.774l2.066 2.067-4.16 4.158-4.16-4.158 2.067-2.067c1.136-1.137 2.078-2.067 2.093-2.067s0.957 0.93 2.094 2.067zM24.82 5.972c0.697 0.178 1.214 0.485 1.798 1.066 0.437 0.435 0.548 0.582 0.761 1.015 0.3 0.609 0.406 1.074 0.406 1.787 0 0.718-0.106 1.181-0.408 1.787-0.213 0.427-0.332 0.586-0.761 1.015-0.43 0.43-0.588 0.548-1.016 0.762-0.611 0.305-1.067 0.407-1.818 0.408-0.961 0.002-1.705-0.251-2.446-0.83-0.485-0.38-0.873-0.86-1.137-1.411l-0.010-0.024c-0.308-0.638-0.375-0.943-0.375-1.707 0-0.353 0.032-0.771 0.072-0.933 0.101-0.416 0.492-1.2 0.777-1.559 0.514-0.646 1.433-1.239 2.169-1.399 0.527-0.114 1.496-0.103 1.988 0.023zM6.062 19.095c-1.238 0.232-2.299 0.868-3.067 1.762l-0.006 0.007c-0.394 0.475-0.859 1.389-1.025 2.016-0.172 0.653-0.171 1.806 0.002 2.453 0.495 1.85 1.783 3.146 3.667 3.692l0.42 0.122h19.947l0.478-0.15c1.459-0.457 2.505-1.329 3.147-2.624 0.423-0.852 0.53-1.311 0.53-2.266s-0.107-1.414-0.53-2.267c-0.642-1.295-1.689-2.166-3.157-2.626l-0.468-0.147-9.84-0.008c-5.412-0.004-9.956 0.012-10.098 0.036zM25.493 21.441c0.988 0.126 1.89 0.889 2.187 1.85 0.069 0.245 0.108 0.525 0.108 0.816s-0.039 0.571-0.113 0.837l0.005-0.022c-0.293 0.946-1.189 1.713-2.16 1.85-0.507 0.071-18.533 0.071-19.040 0-0.444-0.062-1.009-0.325-1.37-0.638-0.991-0.858-1.198-2.418-0.466-3.514 0.412-0.617 1.138-1.088 1.81-1.175 0.493-0.064 18.542-0.067 19.039-0.004z"></path>
</symbol>
<symbol id="icon-ideas" viewBox="0 0 32 32">
<path d="M7.257 4.111c-0.82 0.161-1.394 0.476-2.032 1.114-0.546 0.546-0.784 0.926-1.020 1.628l-0.125 0.374-0.015 9.84c-0.016 10.925-0.044 10.079 0.34 10.474 0.295 0.304 0.475 0.377 0.928 0.377 0.443 0 0.624-0.070 0.903-0.349 0.092-0.092 0.208-0.242 0.259-0.335 0.085-0.156 0.093-0.823 0.118-9.874 0.025-8.81 0.035-9.724 0.114-9.897 0.13-0.287 0.395-0.561 0.675-0.699l0.251-0.124 9.707-0.027c9.051-0.025 9.718-0.033 9.874-0.118 0.093-0.051 0.243-0.167 0.335-0.259 0.279-0.279 0.349-0.46 0.349-0.903 0-0.445-0.070-0.623-0.355-0.909-0.112-0.106-0.239-0.196-0.379-0.267l-0.009-0.004c-0.206-0.093-0.63-0.097-9.948-0.093-5.354 0.003-9.84 0.026-9.97 0.051zM26.159 9.486c-0.652 0.296-0.952 1.073-0.662 1.713 0.133 0.292 0.227 0.4 0.503 0.581 0.188 0.123 0.267 0.14 0.667 0.14 0.416 0 0.473-0.013 0.691-0.161 0.158-0.117 0.29-0.257 0.396-0.417l0.004-0.006c0.144-0.232 0.162-0.307 0.16-0.665-0.001-0.45-0.071-0.63-0.355-0.913-0.224-0.228-0.536-0.369-0.88-0.369-0.006 0-0.011 0-0.017 0h0.001c-0.171 0-0.384 0.041-0.508 0.097zM26.159 14.816c-0.655 0.308-0.952 1.077-0.662 1.716 0.133 0.292 0.227 0.401 0.503 0.582 0.188 0.123 0.267 0.139 0.667 0.139 0.416 0 0.473-0.013 0.691-0.161 0.131-0.088 0.311-0.278 0.4-0.422 0.144-0.232 0.162-0.308 0.16-0.666-0.001-0.447-0.072-0.629-0.349-0.907-0.246-0.246-0.461-0.337-0.849-0.361-0.262-0.015-0.399 0.004-0.561 0.080zM26.156 20.155c-0.931 0.422-1.032 1.696-0.181 2.271 0.219 0.147 0.276 0.161 0.692 0.161s0.473-0.014 0.691-0.161c0.131-0.089 0.311-0.279 0.4-0.423 0.144-0.232 0.162-0.308 0.16-0.666-0.001-0.449-0.071-0.629-0.355-0.913-0.363-0.362-0.954-0.475-1.407-0.269zM10.159 25.486c-0.652 0.296-0.952 1.073-0.662 1.713 0.133 0.292 0.227 0.4 0.503 0.581 0.188 0.123 0.267 0.14 0.667 0.14 0.416 0 0.473-0.013 0.691-0.161 0.158-0.117 0.29-0.257 0.396-0.417l0.004-0.006c0.144-0.232 0.162-0.307 0.16-0.665-0.001-0.45-0.071-0.63-0.355-0.913-0.224-0.228-0.536-0.369-0.88-0.369-0.006 0-0.011 0-0.017 0h0.001c-0.171 0-0.384 0.041-0.508 0.097zM15.489 25.488c-0.93 0.422-1.032 1.696-0.181 2.271 0.219 0.148 0.276 0.161 0.692 0.161s0.473-0.013 0.692-0.161c0.676-0.456 0.786-1.401 0.23-1.973-0.226-0.244-0.548-0.397-0.906-0.397-0.006 0-0.012 0-0.017 0h0.001c-0.172 0-0.384 0.041-0.511 0.099zM20.822 25.488c-0.93 0.422-1.031 1.696-0.18 2.271 0.218 0.148 0.275 0.161 0.691 0.161s0.473-0.013 0.692-0.161c0.158-0.117 0.29-0.257 0.396-0.417l0.004-0.006c0.143-0.232 0.161-0.307 0.16-0.665-0.002-0.45-0.072-0.63-0.356-0.913-0.362-0.363-0.953-0.476-1.407-0.27zM26.159 25.486c-0.652 0.296-0.952 1.073-0.662 1.713 0.133 0.292 0.227 0.4 0.503 0.581 0.188 0.123 0.267 0.14 0.667 0.14 0.416 0 0.473-0.013 0.691-0.161 0.158-0.117 0.29-0.257 0.396-0.417l0.004-0.006c0.144-0.232 0.162-0.307 0.16-0.665-0.001-0.45-0.071-0.63-0.355-0.913-0.224-0.228-0.536-0.369-0.88-0.369-0.006 0-0.011 0-0.017 0h0.001c-0.171 0-0.384 0.041-0.508 0.097z"></path>
</symbol>
<symbol id="icon-cards" viewBox="0 0 32 32">
<path d="M14.32 2.799c-0.147 0.040-0.327 0.096-0.4 0.124-0.444 0.171-10.538 4.585-10.799 4.723-1.058 0.555-1.644 1.925-1.316 3.075 0.14 0.49 7.391 17.992 7.597 18.338 0.544 0.91 1.833 1.428 2.876 1.156 0.383-0.1 11.025-4.73 11.357-4.941 1.045-0.666 1.506-2.051 1.072-3.221-0.208-0.56-7.303-17.701-7.432-17.956-0.12-0.193-0.25-0.361-0.395-0.515l0.002 0.002c-0.636-0.686-1.711-1.016-2.562-0.785zM20.076 2.847c0.256-0.119 0.329-0.126 1.339-0.126 1.521-0.001 1.923 0.125 2.617 0.82 0.409 0.411 0.657 0.851 0.762 1.355 0.039 0.186 0.059 1.248 0.059 3.097 0 3.22 0.010 3.141-0.424 3.546-0.598 0.559-1.518 0.438-1.948-0.256l-0.161-0.261-0.027-2.804c-0.014-1.543-0.046-2.835-0.069-2.871-0.032-0.049-0.286-0.067-0.96-0.068-0.852 0-0.937-0.009-1.188-0.126-0.466-0.217-0.715-0.619-0.715-1.153s0.249-0.936 0.715-1.153zM18.639 14.093c1.994 4.818 3.626 8.816 3.626 8.884 0.002 0.114-0.438 0.316-5.305 2.438-3.496 1.523-5.325 2.295-5.36 2.26-0.029-0.029-1.688-4.006-3.687-8.837-2.453-5.929-3.621-8.811-3.591-8.865 0.049-0.090 10.418-4.631 10.585-4.636 0.093-0.003 0.591 1.164 3.732 8.756zM27.626 5.703c0.318-0.096 0.586-0.050 1.266 0.222 0.375 0.149 0.821 0.345 0.991 0.435 0.982 0.522 1.59 1.811 1.359 2.88-0.1 0.459-3.533 8.535-3.748 8.818-0.073 0.095-0.265 0.238-0.427 0.317l0.007-0.003c-0.172 0.088-0.368 0.138-0.575 0.138-0.677 0-1.23-0.532-1.264-1.204l-0.021-0.337 1.744-4.079c0.959-2.244 1.736-4.122 1.726-4.174-0.013-0.065-0.226-0.179-0.684-0.365-0.826-0.335-1.116-0.579-1.254-1.058-0.201-0.698 0.173-1.374 0.879-1.589z"></path>
</symbol>
<symbol id="icon-chat" viewBox="0 0 32 32">
<path d="M13.276 13.724c-0.241-0.241-0.575-0.391-0.943-0.391-0.736 0-1.333 0.597-1.333 1.333 0 0 0 0.001 0 0.001v-0 2.666c0 0.736 0.597 1.334 1.334 1.334s1.334-0.597 1.334-1.334v0-2.666c0-0.354-0.14-0.693-0.39-0.943zM21.22 13.67c-0.234-0.209-0.545-0.337-0.886-0.337-0.737 0-1.334 0.597-1.334 1.334v0 2.666l0.010 0.156c0.087 0.66 0.646 1.164 1.323 1.164 0.732 0 1.326-0.589 1.334-1.319v-2.667l-0.010-0.156c-0.041-0.336-0.201-0.629-0.437-0.839l-0.001-0.001z"></path>
<path d="M27.714 5.953v0c1.207 1.206 1.953 2.873 1.953 4.714v10.666c-0 1.841-0.746 3.508-1.953 4.714l-0 0c-1.204 1.206-2.87 1.953-4.709 1.953-0.002 0-0.003 0-0.005 0h-18.67c-0.734-0.002-1.328-0.596-1.33-1.33v-16.003c0-3.682 2.985-6.667 6.667-6.667h13.333c1.841 0 3.508 0.746 4.714 1.953zM27 10.663c-0.002-1.102-0.448-2.1-1.17-2.823l0 0c-0.724-0.723-1.724-1.17-2.828-1.17-0.001 0-0.001 0-0.002 0h-13.33c-1.060 0-2.080 0.42-2.83 1.17s-1.17 1.77-1.17 2.83v14.66h17.33c1.060 0 2.080-0.42 2.83-1.17 0.721-0.723 1.168-1.72 1.17-2.822v-10.676z"></path>
</symbol>
<symbol id="icon-image" viewBox="0 0 32 32">
<path d="M5.937 1.871c-0.475 0.081-1.255 0.358-1.638 0.582-1.137 0.667-1.913 1.661-2.312 2.96l-0.147 0.48v10.080c0 11.077-0.024 10.179 0.3 11.067 0.448 1.225 1.595 2.372 2.82 2.82 0.888 0.324-0.010 0.3 11.067 0.3h10.080l0.48-0.147c1.71-0.525 2.901-1.716 3.426-3.426l0.147-0.48v-20.214l-0.149-0.48c-0.536-1.724-1.711-2.9-3.424-3.426l-0.48-0.147-9.947-0.008c-5.471-0.004-10.071 0.014-10.223 0.039zM26.357 4.44c0.533 0.264 0.939 0.67 1.203 1.203l0.2 0.405 0.014 5.341 0.015 5.341-0.441 0.062c-1.296 0.183-2.625 0.679-3.795 1.418l-0.474 0.299-0.326-0.059c-0.693-0.126-1.392-0.441-3.1-1.396-2.898-1.621-4.551-2.146-6.963-2.213-2.928-0.080-5.064 0.593-7.65 2.412-0.12 0.090-0.368 0.264-0.618 0.435l-0.143 0.093c-0.054 0.032-0.065-1.107-0.053-5.847l0.014-5.886 0.199-0.402c0.307-0.627 0.84-1.103 1.489-1.331l0.018-0.006c0.251-0.087 0.881-0.092 10.137-0.081l9.869 0.012 0.405 0.2zM20.567 5.631c-0.666 0.148-1.395 0.473-1.9 0.846-0.343 0.254-0.913 0.853-1.145 1.203-0.33 0.498-0.489 0.837-0.642 1.366-0.752 2.595 0.713 5.303 3.281 6.064 0.619 0.183 0.789 0.207 1.466 0.204 1.361-0.005 2.534-0.49 3.469-1.433 0.942-0.951 1.417-2.108 1.417-3.454 0-2.254-1.443-4.127-3.663-4.752-0.45-0.127-1.792-0.153-2.283-0.044zM22.053 7.946c1.403 0.228 2.379 1.706 2.025 3.065-0.287 1.121-1.289 1.937-2.481 1.937-0.145 0-0.288-0.012-0.426-0.035l0.015 0.002c-0.571-0.088-0.928-0.275-1.377-0.724-0.444-0.444-0.636-0.81-0.725-1.383-0.122-0.788 0.101-1.493 0.662-2.093 0.608-0.65 1.405-0.916 2.307-0.769zM13.76 17.312c1.529 0.211 2.668 0.656 4.88 1.903 0.469 0.265 1.174 0.639 1.567 0.832l0.713 0.35-0.367 0.337c-1.197 1.099-1.932 1.504-2.729 1.507-0.43 0.001-0.917 0.35-1.077 0.773-0.089 0.232-0.075 0.685 0.028 0.901 0.146 0.308 0.502 0.598 0.821 0.666 0.629 0.135 1.852-0.154 2.697-0.638 0.555-0.317 1.209-0.848 2.314-1.878 1.699-1.584 2.497-2.14 3.686-2.569 0.392-0.142 1.214-0.346 1.402-0.348 0.090-0.001 0.094 0.17 0.080 3.402l-0.015 3.402-0.2 0.405c-0.264 0.533-0.67 0.939-1.203 1.203l-0.405 0.2h-19.904l-0.405-0.2c-0.526-0.26-0.943-0.677-1.196-1.188l-0.007-0.015-0.2-0.405-0.030-5.292 0.468-0.279c0.258-0.153 0.84-0.543 1.293-0.867 0.975-0.695 1.572-1.071 2.226-1.399 1.613-0.81 3.523-1.086 5.563-0.803z"></path>
</symbol>
<symbol id="icon-close-modal" viewBox="0 0 32 32">
<path d="M18.638 16l13.266-15.358c0.222-0.254 0.036-0.642-0.308-0.642h-4.036c-0.246 0.001-0.467 0.109-0.619 0.279l-0.001 0.001-10.94 12.668-10.94-12.668c-0.151-0.172-0.371-0.28-0.616-0.28-0.002 0-0.004 0-0.006 0h-4.034c-0.342 0-0.53 0.388-0.308 0.642l13.266 15.358-13.266 15.356c-0.059 0.067-0.095 0.157-0.095 0.254 0 0.060 0.014 0.117 0.038 0.168l-0.001-0.002c0.034 0.069 0.085 0.124 0.148 0.163l0.002 0.001c0.064 0.040 0.14 0.060 0.216 0.060h4.036c0.246-0.001 0.467-0.109 0.619-0.279l0.001-0.001 10.94-12.668 10.94 12.668c0.152 0.176 0.38 0.28 0.622 0.28h4.034c0.342 0 0.53-0.388 0.308-0.644l-13.266-15.356z"></path>
</symbol>
<symbol id="icon-play" viewBox="0 0 32 32">
<path d="M16 2c-2.769 0-5.476 0.821-7.778 2.359s-4.097 3.725-5.156 6.283-1.337 5.373-0.797 8.089c0.54 2.716 1.874 5.21 3.832 7.168s4.452 3.291 7.168 3.832c2.716 0.54 5.531 0.263 8.089-0.797s4.745-2.854 6.283-5.156c1.538-2.302 2.359-5.009 2.359-7.778 0-3.713-1.475-7.274-4.101-9.899s-6.186-4.101-9.899-4.101zM23.447 16.895l-12 6c-0.152 0.076-0.322 0.112-0.492 0.104s-0.336-0.059-0.481-0.149c-0.145-0.090-0.265-0.215-0.348-0.364s-0.126-0.317-0.126-0.487v-12c0-0.17 0.044-0.338 0.127-0.487s0.203-0.274 0.348-0.363 0.31-0.141 0.481-0.148c0.17-0.008 0.34 0.028 0.492 0.104l12 6c0.166 0.083 0.305 0.211 0.403 0.369s0.149 0.34 0.149 0.525c0 0.186-0.052 0.367-0.149 0.525s-0.237 0.286-0.403 0.369z"></path>
</symbol>
<symbol id="icon-search" viewBox="0 0 32 32">
<path d="M19.846 13.679c0-2.465-2.062-4.463-4.607-4.463s-4.607 1.998-4.607 4.463 2.063 4.463 4.607 4.463c2.544 0 4.607-1.998 4.607-4.463zM18.641 19.871c-1.014 0.524-2.172 0.821-3.402 0.821-3.998 0-7.239-3.14-7.239-7.013s3.241-7.013 7.239-7.013c3.998 0 7.239 3.14 7.239 7.013 0 1.761-0.67 3.371-1.778 4.603l3.011 3.646-1.045 0.738-1.011 0.855-3.015-3.651z"></path>
</symbol>
</defs>
</svg>
